<svg id="visual" viewBox="0 0 900 600" width="900" height="600" xmlns="http://www.w3.org/2000/svg" xmlns:xlink="http://www.w3.org/1999/xlink" version="1.1"><rect x="0" y="0" width="900" height="600" fill="#f7f7f7"></rect><defs><linearGradient id="grad1_0" x1="33.3%" y1="0%" x2="100%" y2="100%"><stop offset="20%" stop-color="#f7f7f7" stop-opacity="1"></stop><stop offset="80%" stop-color="#f7f7f7" stop-opacity="1"></stop></linearGradient></defs><defs><linearGradient id="grad2_0" x1="0%" y1="0%" x2="66.7%" y2="100%"><stop offset="20%" stop-color="#f7f7f7" stop-opacity="1"></stop><stop offset="80%" stop-color="#f7f7f7" stop-opacity="1"></stop></linearGradient></defs><g transform="translate(900, 0)"><path d="M0 432.7C-77.4 422.4 -154.8 412.1 -216.3 374.7C-277.8 337.3 -323.4 273 -356.8 206C-390.2 139 -411.4 69.5 -432.7 0L0 0Z" fill="#0066FF"></path></g><g transform="translate(0, 600)"><path d="M0 -432.7C77.5 -422.4 155.1 -412.2 216.3 -374.7C277.6 -337.2 322.6 -272.5 355.9 -205.5C389.3 -138.5 411 -69.3 432.7 0L0 0Z" fill="#0066FF"></path></g></svg>