<svg id="visual" viewBox="0 0 900 600" width="900" height="600" xmlns="http://www.w3.org/2000/svg" xmlns:xlink="http://www.w3.org/1999/xlink" version="1.1"><path d="M0 270L21.5 255C43 240 86 210 128.8 203.3C171.7 196.7 214.3 213.3 257.2 218.7C300 224 343 218 385.8 212C428.7 206 471.3 200 514.2 211C557 222 600 250 642.8 239.7C685.7 229.3 728.3 180.7 771.2 157.2C814 133.7 857 135.3 878.5 136.2L900 137L900 601L878.5 601C857 601 814 601 771.2 601C728.3 601 685.7 601 642.8 601C600 601 557 601 514.2 601C471.3 601 428.7 601 385.8 601C343 601 300 601 257.2 601C214.3 601 171.7 601 128.8 601C86 601 43 601 21.5 601L0 601Z" fill="#fa7268"></path><path d="M0 352L21.5 327C43 302 86 252 128.8 235C171.7 218 214.3 234 257.2 237.2C300 240.3 343 230.7 385.8 227C428.7 223.3 471.3 225.7 514.2 247.2C557 268.7 600 309.3 642.8 306.2C685.7 303 728.3 256 771.2 242.7C814 229.3 857 249.7 878.5 259.8L900 270L900 601L878.5 601C857 601 814 601 771.2 601C728.3 601 685.7 601 642.8 601C600 601 557 601 514.2 601C471.3 601 428.7 601 385.8 601C343 601 300 601 257.2 601C214.3 601 171.7 601 128.8 601C86 601 43 601 21.5 601L0 601Z" fill="#ef5f67"></path><path d="M0 286L21.5 295.5C43 305 86 324 128.8 343C171.7 362 214.3 381 257.2 370.7C300 360.3 343 320.7 385.8 304.2C428.7 287.7 471.3 294.3 514.2 303C557 311.7 600 322.3 642.8 327.2C685.7 332 728.3 331 771.2 326.3C814 321.7 857 313.3 878.5 309.2L900 305L900 601L878.5 601C857 601 814 601 771.2 601C728.3 601 685.7 601 642.8 601C600 601 557 601 514.2 601C471.3 601 428.7 601 385.8 601C343 601 300 601 257.2 601C214.3 601 171.7 601 128.8 601C86 601 43 601 21.5 601L0 601Z" fill="#e34c67"></path><path d="M0 363L21.5 363.8C43 364.7 86 366.3 128.8 380.2C171.7 394 214.3 420 257.2 430.3C300 440.7 343 435.3 385.8 435.5C428.7 435.7 471.3 441.3 514.2 431.3C557 421.3 600 395.7 642.8 391C685.7 386.3 728.3 402.7 771.2 421.2C814 439.7 857 460.3 878.5 470.7L900 481L900 601L878.5 601C857 601 814 601 771.2 601C728.3 601 685.7 601 642.8 601C600 601 557 601 514.2 601C471.3 601 428.7 601 385.8 601C343 601 300 601 257.2 601C214.3 601 171.7 601 128.8 601C86 601 43 601 21.5 601L0 601Z" fill="#d53867"></path><path d="M0 456L21.5 459.8C43 463.7 86 471.3 128.8 482.3C171.7 493.3 214.3 507.7 257.2 512.3C300 517 343 512 385.8 507.2C428.7 502.3 471.3 497.7 514.2 504.3C557 511 600 529 642.8 527.3C685.7 525.7 728.3 504.3 771.2 497.8C814 491.3 857 499.7 878.5 503.8L900 508L900 601L878.5 601C857 601 814 601 771.2 601C728.3 601 685.7 601 642.8 601C600 601 557 601 514.2 601C471.3 601 428.7 601 385.8 601C343 601 300 601 257.2 601C214.3 601 171.7 601 128.8 601C86 601 43 601 21.5 601L0 601Z" fill="#c62368"></path></svg>