<svg id="visual" viewBox="0 0 900 600" width="900" height="600" xmlns="http://www.w3.org/2000/svg" xmlns:xlink="http://www.w3.org/1999/xlink" version="1.1"><path d="M0 25L13.7 24C27.3 23 54.7 21 82 20C109.3 19 136.7 19 163.8 22C191 25 218 31 245.2 33C272.3 35 299.7 33 327 33C354.3 33 381.7 35 409 35C436.3 35 463.7 33 491 30C518.3 27 545.7 23 573 24C600.3 25 627.7 31 654.8 30C682 29 709 21 736.2 19C763.3 17 790.7 21 818 25C845.3 29 872.7 33 886.3 35L900 37L900 0L886.3 0C872.7 0 845.3 0 818 0C790.7 0 763.3 0 736.2 0C709 0 682 0 654.8 0C627.7 0 600.3 0 573 0C545.7 0 518.3 0 491 0C463.7 0 436.3 0 409 0C381.7 0 354.3 0 327 0C299.7 0 272.3 0 245.2 0C218 0 191 0 163.8 0C136.7 0 109.3 0 82 0C54.7 0 27.3 0 13.7 0L0 0Z" fill="#f88eb8"></path><path d="M0 43L13.7 46C27.3 49 54.7 55 82 59C109.3 63 136.7 65 163.8 69C191 73 218 79 245.2 79C272.3 79 299.7 73 327 73C354.3 73 381.7 79 409 80C436.3 81 463.7 77 491 72C518.3 67 545.7 61 573 60C600.3 59 627.7 63 654.8 61C682 59 709 51 736.2 48C763.3 45 790.7 47 818 51C845.3 55 872.7 61 886.3 64L900 67L900 35L886.3 33C872.7 31 845.3 27 818 23C790.7 19 763.3 15 736.2 17C709 19 682 27 654.8 28C627.7 29 600.3 23 573 22C545.7 21 518.3 25 491 28C463.7 31 436.3 33 409 33C381.7 33 354.3 31 327 31C299.7 31 272.3 33 245.2 31C218 29 191 23 163.8 20C136.7 17 109.3 17 82 18C54.7 19 27.3 21 13.7 22L0 23Z" fill="#f97dac"></path><path d="M0 67L13.7 70C27.3 73 54.7 79 82 81C109.3 83 136.7 81 163.8 85C191 89 218 99 245.2 99C272.3 99 299.7 89 327 87C354.3 85 381.7 91 409 93C436.3 95 463.7 93 491 88C518.3 83 545.7 75 573 73C600.3 71 627.7 75 654.8 75C682 75 709 71 736.2 71C763.3 71 790.7 75 818 78C845.3 81 872.7 83 886.3 84L900 85L900 65L886.3 62C872.7 59 845.3 53 818 49C790.7 45 763.3 43 736.2 46C709 49 682 57 654.8 59C627.7 61 600.3 57 573 58C545.7 59 518.3 65 491 70C463.7 75 436.3 79 409 78C381.7 77 354.3 71 327 71C299.7 71 272.3 77 245.2 77C218 77 191 71 163.8 67C136.7 63 109.3 61 82 57C54.7 53 27.3 47 13.7 44L0 41Z" fill="#fa6a9f"></path><path d="M0 139L13.7 139C27.3 139 54.7 139 82 140C109.3 141 136.7 143 163.8 144C191 145 218 145 245.2 141C272.3 137 299.7 129 327 131C354.3 133 381.7 145 409 150C436.3 155 463.7 153 491 148C518.3 143 545.7 135 573 134C600.3 133 627.7 139 654.8 138C682 137 709 129 736.2 127C763.3 125 790.7 129 818 127C845.3 125 872.7 117 886.3 113L900 109L900 83L886.3 82C872.7 81 845.3 79 818 76C790.7 73 763.3 69 736.2 69C709 69 682 73 654.8 73C627.7 73 600.3 69 573 71C545.7 73 518.3 81 491 86C463.7 91 436.3 93 409 91C381.7 89 354.3 83 327 85C299.7 87 272.3 97 245.2 97C218 97 191 87 163.8 83C136.7 79 109.3 81 82 79C54.7 77 27.3 71 13.7 68L0 65Z" fill="#fa5591"></path><path d="M0 205L13.7 209C27.3 213 54.7 221 82 222C109.3 223 136.7 217 163.8 213C191 209 218 207 245.2 202C272.3 197 299.7 189 327 189C354.3 189 381.7 197 409 200C436.3 203 463.7 201 491 196C518.3 191 545.7 183 573 179C600.3 175 627.7 175 654.8 178C682 181 709 187 736.2 196C763.3 205 790.7 217 818 221C845.3 225 872.7 221 886.3 219L900 217L900 107L886.3 111C872.7 115 845.3 123 818 125C790.7 127 763.3 123 736.2 125C709 127 682 135 654.8 136C627.7 137 600.3 131 573 132C545.7 133 518.3 141 491 146C463.7 151 436.3 153 409 148C381.7 143 354.3 131 327 129C299.7 127 272.3 135 245.2 139C218 143 191 143 163.8 142C136.7 141 109.3 139 82 138C54.7 137 27.3 137 13.7 137L0 137Z" fill="#f93c82"></path><path d="M0 379L13.7 379C27.3 379 54.7 379 82 368C109.3 357 136.7 335 163.8 323C191 311 218 309 245.2 312C272.3 315 299.7 323 327 333C354.3 343 381.7 355 409 344C436.3 333 463.7 299 491 293C518.3 287 545.7 309 573 315C600.3 321 627.7 311 654.8 308C682 305 709 309 736.2 311C763.3 313 790.7 313 818 323C845.3 333 872.7 353 886.3 363L900 373L900 215L886.3 217C872.7 219 845.3 223 818 219C790.7 215 763.3 203 736.2 194C709 185 682 179 654.8 176C627.7 173 600.3 173 573 177C545.7 181 518.3 189 491 194C463.7 199 436.3 201 409 198C381.7 195 354.3 187 327 187C299.7 187 272.3 195 245.2 200C218 205 191 207 163.8 211C136.7 215 109.3 221 82 220C54.7 219 27.3 211 13.7 207L0 203Z" fill="#f92f7c"></path><path d="M0 409L13.7 406C27.3 403 54.7 397 82 388C109.3 379 136.7 367 163.8 358C191 349 218 343 245.2 345C272.3 347 299.7 357 327 365C354.3 373 381.7 379 409 369C436.3 359 463.7 333 491 327C518.3 321 545.7 335 573 340C600.3 345 627.7 341 654.8 342C682 343 709 349 736.2 349C763.3 349 790.7 343 818 349C845.3 355 872.7 373 886.3 382L900 391L900 371L886.3 361C872.7 351 845.3 331 818 321C790.7 311 763.3 311 736.2 309C709 307 682 303 654.8 306C627.7 309 600.3 319 573 313C545.7 307 518.3 285 491 291C463.7 297 436.3 331 409 342C381.7 353 354.3 341 327 331C299.7 321 272.3 313 245.2 310C218 307 191 309 163.8 321C136.7 333 109.3 355 82 366C54.7 377 27.3 377 13.7 377L0 377Z" fill="#f92f7c"></path><path d="M0 439L13.7 435C27.3 431 54.7 423 82 416C109.3 409 136.7 403 163.8 395C191 387 218 377 245.2 380C272.3 383 299.7 399 327 410C354.3 421 381.7 427 409 413C436.3 399 463.7 365 491 354C518.3 343 545.7 355 573 363C600.3 371 627.7 375 654.8 378C682 381 709 383 736.2 383C763.3 383 790.7 381 818 389C845.3 397 872.7 415 886.3 424L900 433L900 389L886.3 380C872.7 371 845.3 353 818 347C790.7 341 763.3 347 736.2 347C709 347 682 341 654.8 340C627.7 339 600.3 343 573 338C545.7 333 518.3 319 491 325C463.7 331 436.3 357 409 367C381.7 377 354.3 371 327 363C299.7 355 272.3 345 245.2 343C218 341 191 347 163.8 356C136.7 365 109.3 377 82 386C54.7 395 27.3 401 13.7 404L0 407Z" fill="#f93c82"></path><path d="M0 505L13.7 501C27.3 497 54.7 489 82 481C109.3 473 136.7 465 163.8 469C191 473 218 489 245.2 496C272.3 503 299.7 501 327 501C354.3 501 381.7 503 409 504C436.3 505 463.7 505 491 506C518.3 507 545.7 509 573 506C600.3 503 627.7 495 654.8 486C682 477 709 467 736.2 469C763.3 471 790.7 485 818 491C845.3 497 872.7 495 886.3 494L900 493L900 431L886.3 422C872.7 413 845.3 395 818 387C790.7 379 763.3 381 736.2 381C709 381 682 379 654.8 376C627.7 373 600.3 369 573 361C545.7 353 518.3 341 491 352C463.7 363 436.3 397 409 411C381.7 425 354.3 419 327 408C299.7 397 272.3 381 245.2 378C218 375 191 385 163.8 393C136.7 401 109.3 407 82 414C54.7 421 27.3 429 13.7 433L0 437Z" fill="#fa5591"></path><path d="M0 535L13.7 536C27.3 537 54.7 539 82 536C109.3 533 136.7 525 163.8 522C191 519 218 521 245.2 527C272.3 533 299.7 543 327 550C354.3 557 381.7 561 409 557C436.3 553 463.7 541 491 538C518.3 535 545.7 541 573 541C600.3 541 627.7 535 654.8 529C682 523 709 517 736.2 522C763.3 527 790.7 543 818 545C845.3 547 872.7 535 886.3 529L900 523L900 491L886.3 492C872.7 493 845.3 495 818 489C790.7 483 763.3 469 736.2 467C709 465 682 475 654.8 484C627.7 493 600.3 501 573 504C545.7 507 518.3 505 491 504C463.7 503 436.3 503 409 502C381.7 501 354.3 499 327 499C299.7 499 272.3 501 245.2 494C218 487 191 471 163.8 467C136.7 463 109.3 471 82 479C54.7 487 27.3 495 13.7 499L0 503Z" fill="#fa6a9f"></path><path d="M0 571L13.7 568C27.3 565 54.7 559 82 556C109.3 553 136.7 553 163.8 552C191 551 218 549 245.2 552C272.3 555 299.7 563 327 569C354.3 575 381.7 579 409 577C436.3 575 463.7 567 491 566C518.3 565 545.7 571 573 569C600.3 567 627.7 557 654.8 552C682 547 709 547 736.2 553C763.3 559 790.7 571 818 571C845.3 571 872.7 559 886.3 553L900 547L900 521L886.3 527C872.7 533 845.3 545 818 543C790.7 541 763.3 525 736.2 520C709 515 682 521 654.8 527C627.7 533 600.3 539 573 539C545.7 539 518.3 533 491 536C463.7 539 436.3 551 409 555C381.7 559 354.3 555 327 548C299.7 541 272.3 531 245.2 525C218 519 191 517 163.8 520C136.7 523 109.3 531 82 534C54.7 537 27.3 535 13.7 534L0 533Z" fill="#f97dac"></path><path d="M0 601L13.7 601C27.3 601 54.7 601 82 601C109.3 601 136.7 601 163.8 601C191 601 218 601 245.2 601C272.3 601 299.7 601 327 601C354.3 601 381.7 601 409 601C436.3 601 463.7 601 491 601C518.3 601 545.7 601 573 601C600.3 601 627.7 601 654.8 601C682 601 709 601 736.2 601C763.3 601 790.7 601 818 601C845.3 601 872.7 601 886.3 601L900 601L900 545L886.3 551C872.7 557 845.3 569 818 569C790.7 569 763.3 557 736.2 551C709 545 682 545 654.8 550C627.7 555 600.3 565 573 567C545.7 569 518.3 563 491 564C463.7 565 436.3 573 409 575C381.7 577 354.3 573 327 567C299.7 561 272.3 553 245.2 550C218 547 191 549 163.8 550C136.7 551 109.3 551 82 554C54.7 557 27.3 563 13.7 566L0 569Z" fill="#f88eb8"></path></svg>