<svg id="visual" viewBox="0 0 900 600" width="900" height="600" xmlns="http://www.w3.org/2000/svg" xmlns:xlink="http://www.w3.org/1999/xlink" version="1.1"><path d="M0 37L15 38C30 39 60 41 90 38C120 35 150 27 180 23C210 19 240 19 270 20C300 21 330 23 360 23C390 23 420 21 450 20C480 19 510 19 540 21C570 23 600 27 630 30C660 33 690 35 720 37C750 39 780 41 810 40C840 39 870 35 885 33L900 31L900 0L885 0C870 0 840 0 810 0C780 0 750 0 720 0C690 0 660 0 630 0C600 0 570 0 540 0C510 0 480 0 450 0C420 0 390 0 360 0C330 0 300 0 270 0C240 0 210 0 180 0C150 0 120 0 90 0C60 0 30 0 15 0L0 0Z" fill="#9f141e"></path><path d="M0 73L15 74C30 75 60 77 90 74C120 71 150 63 180 57C210 51 240 47 270 46C300 45 330 47 360 47C390 47 420 45 450 44C480 43 510 43 540 46C570 49 600 55 630 58C660 61 690 61 720 61C750 61 780 61 810 59C840 57 870 53 885 51L900 49L900 29L885 31C870 33 840 37 810 38C780 39 750 37 720 35C690 33 660 31 630 28C600 25 570 21 540 19C510 17 480 17 450 18C420 19 390 21 360 21C330 21 300 19 270 18C240 17 210 17 180 21C150 25 120 33 90 36C60 39 30 37 15 36L0 35Z" fill="#b91920"></path><path d="M0 103L15 108C30 113 60 123 90 126C120 129 150 125 180 118C210 111 240 101 270 97C300 93 330 95 360 97C390 99 420 101 450 96C480 91 510 79 540 80C570 81 600 95 630 100C660 105 690 101 720 100C750 99 780 101 810 100C840 99 870 95 885 93L900 91L900 47L885 49C870 51 840 55 810 57C780 59 750 59 720 59C690 59 660 59 630 56C600 53 570 47 540 44C510 41 480 41 450 42C420 43 390 45 360 45C330 45 300 43 270 44C240 45 210 49 180 55C150 61 120 69 90 72C60 75 30 73 15 72L0 71Z" fill="#d31f20"></path><path d="M0 115L15 121C30 127 60 139 90 142C120 145 150 139 180 133C210 127 240 121 270 117C300 113 330 111 360 112C390 113 420 117 450 114C480 111 510 101 540 103C570 105 600 119 630 123C660 127 690 121 720 118C750 115 780 115 810 113C840 111 870 107 885 105L900 103L900 89L885 91C870 93 840 97 810 98C780 99 750 97 720 98C690 99 660 103 630 98C600 93 570 79 540 78C510 77 480 89 450 94C420 99 390 97 360 95C330 93 300 91 270 95C240 99 210 109 180 116C150 123 120 127 90 124C60 121 30 111 15 106L0 101Z" fill="#e24139"></path><path d="M0 223L15 225C30 227 60 231 90 238C120 245 150 255 180 246C210 237 240 209 270 195C300 181 330 181 360 186C390 191 420 201 450 206C480 211 510 211 540 214C570 217 600 223 630 230C660 237 690 245 720 244C750 243 780 233 810 235C840 237 870 251 885 258L900 265L900 101L885 103C870 105 840 109 810 111C780 113 750 113 720 116C690 119 660 125 630 121C600 117 570 103 540 101C510 99 480 109 450 112C420 115 390 111 360 110C330 109 300 111 270 115C240 119 210 125 180 131C150 137 120 143 90 140C60 137 30 125 15 119L0 113Z" fill="#ec6058"></path><path d="M0 235L15 240C30 245 60 255 90 265C120 275 150 285 180 275C210 265 240 235 270 222C300 209 330 213 360 221C390 229 420 241 450 244C480 247 510 241 540 241C570 241 600 247 630 258C660 269 690 285 720 284C750 283 780 265 810 262C840 259 870 271 885 277L900 283L900 263L885 256C870 249 840 235 810 233C780 231 750 241 720 242C690 243 660 235 630 228C600 221 570 215 540 212C510 209 480 209 450 204C420 199 390 189 360 184C330 179 300 179 270 193C240 207 210 235 180 244C150 253 120 243 90 236C60 229 30 225 15 223L0 221Z" fill="#f06c64"></path><path d="M0 271L15 279C30 287 60 303 90 319C120 335 150 351 180 342C210 333 240 299 270 288C300 277 330 289 360 297C390 305 420 309 450 306C480 303 510 293 540 294C570 295 600 307 630 325C660 343 690 367 720 366C750 365 780 339 810 333C840 327 870 341 885 348L900 355L900 281L885 275C870 269 840 257 810 260C780 263 750 281 720 282C690 283 660 267 630 256C600 245 570 239 540 239C510 239 480 245 450 242C420 239 390 227 360 219C330 211 300 207 270 220C240 233 210 263 180 273C150 283 120 273 90 263C60 253 30 243 15 238L0 233Z" fill="#f06c64"></path><path d="M0 295L15 301C30 307 60 319 90 333C120 347 150 363 180 356C210 349 240 319 270 310C300 301 330 313 360 320C390 327 420 329 450 325C480 321 510 311 540 313C570 315 600 329 630 346C660 363 690 383 720 382C750 381 780 359 810 354C840 349 870 361 885 367L900 373L900 353L885 346C870 339 840 325 810 331C780 337 750 363 720 364C690 365 660 341 630 323C600 305 570 293 540 292C510 291 480 301 450 304C420 307 390 303 360 295C330 287 300 275 270 286C240 297 210 331 180 340C150 349 120 333 90 317C60 301 30 285 15 277L0 269Z" fill="#ec6058"></path><path d="M0 349L15 353C30 357 60 365 90 376C120 387 150 401 180 396C210 391 240 367 270 358C300 349 330 355 360 357C390 359 420 357 450 356C480 355 510 355 540 359C570 363 600 371 630 387C660 403 690 427 720 428C750 429 780 407 810 400C840 393 870 401 885 405L900 409L900 371L885 365C870 359 840 347 810 352C780 357 750 379 720 380C690 381 660 361 630 344C600 327 570 313 540 311C510 309 480 319 450 323C420 327 390 325 360 318C330 311 300 299 270 308C240 317 210 347 180 354C150 361 120 345 90 331C60 317 30 305 15 299L0 293Z" fill="#e24139"></path><path d="M0 415L15 417C30 419 60 423 90 430C120 437 150 447 180 441C210 435 240 413 270 407C300 401 330 411 360 409C390 407 420 393 450 387C480 381 510 383 540 396C570 409 600 433 630 450C660 467 690 477 720 476C750 475 780 463 810 463C840 463 870 475 885 481L900 487L900 407L885 403C870 399 840 391 810 398C780 405 750 427 720 426C690 425 660 401 630 385C600 369 570 361 540 357C510 353 480 353 450 354C420 355 390 357 360 355C330 353 300 347 270 356C240 365 210 389 180 394C150 399 120 385 90 374C60 363 30 355 15 351L0 347Z" fill="#d31f20"></path><path d="M0 457L15 457C30 457 60 457 90 464C120 471 150 485 180 483C210 481 240 463 270 459C300 455 330 465 360 462C390 459 420 443 450 435C480 427 510 427 540 436C570 445 600 463 630 477C660 491 690 501 720 503C750 505 780 499 810 499C840 499 870 505 885 508L900 511L900 485L885 479C870 473 840 461 810 461C780 461 750 473 720 474C690 475 660 465 630 448C600 431 570 407 540 394C510 381 480 379 450 385C420 391 390 405 360 407C330 409 300 399 270 405C240 411 210 433 180 439C150 445 120 435 90 428C60 421 30 417 15 415L0 413Z" fill="#b91920"></path><path d="M0 601L15 601C30 601 60 601 90 601C120 601 150 601 180 601C210 601 240 601 270 601C300 601 330 601 360 601C390 601 420 601 450 601C480 601 510 601 540 601C570 601 600 601 630 601C660 601 690 601 720 601C750 601 780 601 810 601C840 601 870 601 885 601L900 601L900 509L885 506C870 503 840 497 810 497C780 497 750 503 720 501C690 499 660 489 630 475C600 461 570 443 540 434C510 425 480 425 450 433C420 441 390 457 360 460C330 463 300 453 270 457C240 461 210 479 180 481C150 483 120 469 90 462C60 455 30 455 15 455L0 455Z" fill="#9f141e"></path></svg>