<svg id="visual" viewBox="0 0 900 600" width="900" height="600" xmlns="http://www.w3.org/2000/svg" xmlns:xlink="http://www.w3.org/1999/xlink" version="1.1"><rect x="0" y="0" width="900" height="600" fill="#ffffff"></rect><defs><linearGradient id="grad1_0" x1="33.3%" y1="0%" x2="100%" y2="100%"><stop offset="20%" stop-color="#ffffff" stop-opacity="1"></stop><stop offset="80%" stop-color="#ffffff" stop-opacity="1"></stop></linearGradient></defs><defs><linearGradient id="grad2_0" x1="0%" y1="0%" x2="66.7%" y2="100%"><stop offset="20%" stop-color="#ffffff" stop-opacity="1"></stop><stop offset="80%" stop-color="#ffffff" stop-opacity="1"></stop></linearGradient></defs><g transform="translate(900, 0)"><path d="M0 432.7C-57.9 427.5 -115.7 422.4 -165.6 399.7C-215.4 377.1 -257.3 337 -295.6 295.6C-333.8 254.1 -368.5 211.4 -390.8 161.9C-413.1 112.4 -422.9 56.2 -432.7 0L0 0Z" fill="#ff4444"></path></g><g transform="translate(0, 600)"><path d="M0 -432.7C53.3 -418.3 106.5 -404 159.6 -385.3C212.6 -366.5 265.5 -343.5 305.9 -305.9C346.4 -268.4 374.5 -216.4 393.6 -163C412.6 -109.6 422.6 -54.8 432.7 0L0 0Z" fill="#ff4444"></path></g></svg>