<svg id="visual" viewBox="0 0 900 600" width="900" height="600" xmlns="http://www.w3.org/2000/svg" xmlns:xlink="http://www.w3.org/1999/xlink" version="1.1"><path d="M0 31L13.7 30C27.3 29 54.7 27 82 25C109.3 23 136.7 21 163.8 21C191 21 218 23 245.2 27C272.3 31 299.7 37 327 41C354.3 45 381.7 47 409 43C436.3 39 463.7 29 491 28C518.3 27 545.7 35 573 35C600.3 35 627.7 27 654.8 27C682 27 709 35 736.2 37C763.3 39 790.7 35 818 34C845.3 33 872.7 35 886.3 36L900 37L900 0L886.3 0C872.7 0 845.3 0 818 0C790.7 0 763.3 0 736.2 0C709 0 682 0 654.8 0C627.7 0 600.3 0 573 0C545.7 0 518.3 0 491 0C463.7 0 436.3 0 409 0C381.7 0 354.3 0 327 0C299.7 0 272.3 0 245.2 0C218 0 191 0 163.8 0C136.7 0 109.3 0 82 0C54.7 0 27.3 0 13.7 0L0 0Z" fill="#a8b1ff"></path><path d="M0 43L13.7 42C27.3 41 54.7 39 82 39C109.3 39 136.7 41 163.8 42C191 43 218 43 245.2 47C272.3 51 299.7 59 327 63C354.3 67 381.7 67 409 63C436.3 59 463.7 51 491 50C518.3 49 545.7 55 573 57C600.3 59 627.7 57 654.8 59C682 61 709 67 736.2 67C763.3 67 790.7 61 818 59C845.3 57 872.7 59 886.3 60L900 61L900 35L886.3 34C872.7 33 845.3 31 818 32C790.7 33 763.3 37 736.2 35C709 33 682 25 654.8 25C627.7 25 600.3 33 573 33C545.7 33 518.3 25 491 26C463.7 27 436.3 37 409 41C381.7 45 354.3 43 327 39C299.7 35 272.3 29 245.2 25C218 21 191 19 163.8 19C136.7 19 109.3 21 82 23C54.7 25 27.3 27 13.7 28L0 29Z" fill="#8b93ff"></path><path d="M0 85L13.7 84C27.3 83 54.7 81 82 77C109.3 73 136.7 67 163.8 64C191 61 218 61 245.2 67C272.3 73 299.7 85 327 91C354.3 97 381.7 97 409 92C436.3 87 463.7 77 491 75C518.3 73 545.7 79 573 83C600.3 87 627.7 89 654.8 92C682 95 709 99 736.2 97C763.3 95 790.7 87 818 85C845.3 83 872.7 87 886.3 89L900 91L900 59L886.3 58C872.7 57 845.3 55 818 57C790.7 59 763.3 65 736.2 65C709 65 682 59 654.8 57C627.7 55 600.3 57 573 55C545.7 53 518.3 47 491 48C463.7 49 436.3 57 409 61C381.7 65 354.3 65 327 61C299.7 57 272.3 49 245.2 45C218 41 191 41 163.8 40C136.7 39 109.3 37 82 37C54.7 37 27.3 39 13.7 40L0 41Z" fill="#7174ff"></path><path d="M0 109L13.7 113C27.3 117 54.7 125 82 124C109.3 123 136.7 113 163.8 110C191 107 218 111 245.2 118C272.3 125 299.7 135 327 140C354.3 145 381.7 145 409 140C436.3 135 463.7 125 491 125C518.3 125 545.7 135 573 139C600.3 143 627.7 141 654.8 139C682 137 709 135 736.2 134C763.3 133 790.7 133 818 133C845.3 133 872.7 133 886.3 133L900 133L900 89L886.3 87C872.7 85 845.3 81 818 83C790.7 85 763.3 93 736.2 95C709 97 682 93 654.8 90C627.7 87 600.3 85 573 81C545.7 77 518.3 71 491 73C463.7 75 436.3 85 409 90C381.7 95 354.3 95 327 89C299.7 83 272.3 71 245.2 65C218 59 191 59 163.8 62C136.7 65 109.3 71 82 75C54.7 79 27.3 81 13.7 82L0 83Z" fill="#5953ff"></path><path d="M0 151L13.7 160C27.3 169 54.7 187 82 185C109.3 183 136.7 161 163.8 154C191 147 218 155 245.2 169C272.3 183 299.7 203 327 211C354.3 219 381.7 215 409 208C436.3 201 463.7 191 491 193C518.3 195 545.7 209 573 210C600.3 211 627.7 199 654.8 197C682 195 709 203 736.2 204C763.3 205 790.7 199 818 198C845.3 197 872.7 201 886.3 203L900 205L900 131L886.3 131C872.7 131 845.3 131 818 131C790.7 131 763.3 131 736.2 132C709 133 682 135 654.8 137C627.7 139 600.3 141 573 137C545.7 133 518.3 123 491 123C463.7 123 436.3 133 409 138C381.7 143 354.3 143 327 138C299.7 133 272.3 123 245.2 116C218 109 191 105 163.8 108C136.7 111 109.3 121 82 122C54.7 123 27.3 115 13.7 111L0 107Z" fill="#4428fc"></path><path d="M0 211L13.7 217C27.3 223 54.7 235 82 230C109.3 225 136.7 203 163.8 199C191 195 218 209 245.2 220C272.3 231 299.7 239 327 243C354.3 247 381.7 247 409 242C436.3 237 463.7 227 491 233C518.3 239 545.7 261 573 266C600.3 271 627.7 259 654.8 255C682 251 709 255 736.2 249C763.3 243 790.7 227 818 225C845.3 223 872.7 235 886.3 241L900 247L900 203L886.3 201C872.7 199 845.3 195 818 196C790.7 197 763.3 203 736.2 202C709 201 682 193 654.8 195C627.7 197 600.3 209 573 208C545.7 207 518.3 193 491 191C463.7 189 436.3 199 409 206C381.7 213 354.3 217 327 209C299.7 201 272.3 181 245.2 167C218 153 191 145 163.8 152C136.7 159 109.3 181 82 183C54.7 185 27.3 167 13.7 158L0 149Z" fill="#3d03fa"></path><path d="M0 253L13.7 261C27.3 269 54.7 285 82 281C109.3 277 136.7 253 163.8 243C191 233 218 237 245.2 248C272.3 259 299.7 277 327 286C354.3 295 381.7 295 409 289C436.3 283 463.7 271 491 272C518.3 273 545.7 287 573 288C600.3 289 627.7 277 654.8 277C682 277 709 289 736.2 286C763.3 283 790.7 265 818 259C845.3 253 872.7 259 886.3 262L900 265L900 245L886.3 239C872.7 233 845.3 221 818 223C790.7 225 763.3 241 736.2 247C709 253 682 249 654.8 253C627.7 257 600.3 269 573 264C545.7 259 518.3 237 491 231C463.7 225 436.3 235 409 240C381.7 245 354.3 245 327 241C299.7 237 272.3 229 245.2 218C218 207 191 193 163.8 197C136.7 201 109.3 223 82 228C54.7 233 27.3 221 13.7 215L0 209Z" fill="#3d03fa"></path><path d="M0 265L13.7 273C27.3 281 54.7 297 82 295C109.3 293 136.7 273 163.8 264C191 255 218 257 245.2 269C272.3 281 299.7 303 327 312C354.3 321 381.7 317 409 308C436.3 299 463.7 285 491 285C518.3 285 545.7 299 573 302C600.3 305 627.7 297 654.8 298C682 299 709 309 736.2 305C763.3 301 790.7 283 818 279C845.3 275 872.7 285 886.3 290L900 295L900 263L886.3 260C872.7 257 845.3 251 818 257C790.7 263 763.3 281 736.2 284C709 287 682 275 654.8 275C627.7 275 600.3 287 573 286C545.7 285 518.3 271 491 270C463.7 269 436.3 281 409 287C381.7 293 354.3 293 327 284C299.7 275 272.3 257 245.2 246C218 235 191 231 163.8 241C136.7 251 109.3 275 82 279C54.7 283 27.3 267 13.7 259L0 251Z" fill="#4428fc"></path><path d="M0 445L13.7 441C27.3 437 54.7 429 82 422C109.3 415 136.7 409 163.8 407C191 405 218 407 245.2 406C272.3 405 299.7 401 327 408C354.3 415 381.7 433 409 432C436.3 431 463.7 411 491 401C518.3 391 545.7 391 573 390C600.3 389 627.7 387 654.8 387C682 387 709 389 736.2 385C763.3 381 790.7 371 818 366C845.3 361 872.7 361 886.3 361L900 361L900 293L886.3 288C872.7 283 845.3 273 818 277C790.7 281 763.3 299 736.2 303C709 307 682 297 654.8 296C627.7 295 600.3 303 573 300C545.7 297 518.3 283 491 283C463.7 283 436.3 297 409 306C381.7 315 354.3 319 327 310C299.7 301 272.3 279 245.2 267C218 255 191 253 163.8 262C136.7 271 109.3 291 82 293C54.7 295 27.3 279 13.7 271L0 263Z" fill="#5953ff"></path><path d="M0 487L13.7 488C27.3 489 54.7 491 82 484C109.3 477 136.7 461 163.8 456C191 451 218 457 245.2 458C272.3 459 299.7 455 327 466C354.3 477 381.7 503 409 503C436.3 503 463.7 477 491 465C518.3 453 545.7 455 573 457C600.3 459 627.7 461 654.8 458C682 455 709 447 736.2 437C763.3 427 790.7 415 818 413C845.3 411 872.7 419 886.3 423L900 427L900 359L886.3 359C872.7 359 845.3 359 818 364C790.7 369 763.3 379 736.2 383C709 387 682 385 654.8 385C627.7 385 600.3 387 573 388C545.7 389 518.3 389 491 399C463.7 409 436.3 429 409 430C381.7 431 354.3 413 327 406C299.7 399 272.3 403 245.2 404C218 405 191 403 163.8 405C136.7 407 109.3 413 82 420C54.7 427 27.3 435 13.7 439L0 443Z" fill="#7174ff"></path><path d="M0 505L13.7 505C27.3 505 54.7 505 82 501C109.3 497 136.7 489 163.8 489C191 489 218 497 245.2 495C272.3 493 299.7 481 327 487C354.3 493 381.7 517 409 520C436.3 523 463.7 505 491 495C518.3 485 545.7 483 573 483C600.3 483 627.7 485 654.8 481C682 477 709 467 736.2 459C763.3 451 790.7 445 818 443C845.3 441 872.7 443 886.3 444L900 445L900 425L886.3 421C872.7 417 845.3 409 818 411C790.7 413 763.3 425 736.2 435C709 445 682 453 654.8 456C627.7 459 600.3 457 573 455C545.7 453 518.3 451 491 463C463.7 475 436.3 501 409 501C381.7 501 354.3 475 327 464C299.7 453 272.3 457 245.2 456C218 455 191 449 163.8 454C136.7 459 109.3 475 82 482C54.7 489 27.3 487 13.7 486L0 485Z" fill="#8b93ff"></path><path d="M0 601L13.7 601C27.3 601 54.7 601 82 601C109.3 601 136.7 601 163.8 601C191 601 218 601 245.2 601C272.3 601 299.7 601 327 601C354.3 601 381.7 601 409 601C436.3 601 463.7 601 491 601C518.3 601 545.7 601 573 601C600.3 601 627.7 601 654.8 601C682 601 709 601 736.2 601C763.3 601 790.7 601 818 601C845.3 601 872.7 601 886.3 601L900 601L900 443L886.3 442C872.7 441 845.3 439 818 441C790.7 443 763.3 449 736.2 457C709 465 682 475 654.8 479C627.7 483 600.3 481 573 481C545.7 481 518.3 483 491 493C463.7 503 436.3 521 409 518C381.7 515 354.3 491 327 485C299.7 479 272.3 491 245.2 493C218 495 191 487 163.8 487C136.7 487 109.3 495 82 499C54.7 503 27.3 503 13.7 503L0 503Z" fill="#a8b1ff"></path></svg>