<svg id="visual" viewBox="0 0 900 600" width="900" height="600" xmlns="http://www.w3.org/2000/svg" xmlns:xlink="http://www.w3.org/1999/xlink" version="1.1"><path d="M0 37L12.5 35C25 33 50 29 75 29C100 29 125 33 150 32C175 31 200 25 225 25C250 25 275 31 300 33C325 35 350 33 375 31C400 29 425 27 450 26C475 25 500 25 525 27C550 29 575 33 600 32C625 31 650 25 675 24C700 23 725 27 750 27C775 27 800 23 825 21C850 19 875 19 887.5 19L900 19L900 0L887.5 0C875 0 850 0 825 0C800 0 775 0 750 0C725 0 700 0 675 0C650 0 625 0 600 0C575 0 550 0 525 0C500 0 475 0 450 0C425 0 400 0 375 0C350 0 325 0 300 0C275 0 250 0 225 0C200 0 175 0 150 0C125 0 100 0 75 0C50 0 25 0 12.5 0L0 0Z" fill="#b5580e"></path><path d="M0 73L12.5 68C25 63 50 53 75 52C100 51 125 59 150 61C175 63 200 59 225 59C250 59 275 63 300 65C325 67 350 67 375 66C400 65 425 63 450 61C475 59 500 57 525 56C550 55 575 55 600 54C625 53 650 51 675 53C700 55 725 61 750 60C775 59 800 51 825 46C850 41 875 39 887.5 38L900 37L900 17L887.5 17C875 17 850 17 825 19C800 21 775 25 750 25C725 25 700 21 675 22C650 23 625 29 600 30C575 31 550 27 525 25C500 23 475 23 450 24C425 25 400 27 375 29C350 31 325 33 300 31C275 29 250 23 225 23C200 23 175 29 150 30C125 31 100 27 75 27C50 27 25 31 12.5 33L0 35Z" fill="#d2660f"></path><path d="M0 97L12.5 94C25 91 50 85 75 87C100 89 125 99 150 104C175 109 200 109 225 110C250 111 275 113 300 112C325 111 350 107 375 105C400 103 425 103 450 100C475 97 500 91 525 88C550 85 575 85 600 85C625 85 650 85 675 86C700 87 725 89 750 91C775 93 800 95 825 90C850 85 875 73 887.5 67L900 61L900 35L887.5 36C875 37 850 39 825 44C800 49 775 57 750 58C725 59 700 53 675 51C650 49 625 51 600 52C575 53 550 53 525 54C500 55 475 57 450 59C425 61 400 63 375 64C350 65 325 65 300 63C275 61 250 57 225 57C200 57 175 61 150 59C125 57 100 49 75 50C50 51 25 61 12.5 66L0 71Z" fill="#f1740f"></path><path d="M0 163L12.5 155C25 147 50 131 75 133C100 135 125 155 150 165C175 175 200 175 225 171C250 167 275 159 300 159C325 159 350 167 375 164C400 161 425 147 450 141C475 135 500 137 525 139C550 141 575 143 600 141C625 139 650 133 675 132C700 131 725 135 750 140C775 145 800 151 825 145C850 139 875 121 887.5 112L900 103L900 59L887.5 65C875 71 850 83 825 88C800 93 775 91 750 89C725 87 700 85 675 84C650 83 625 83 600 83C575 83 550 83 525 86C500 89 475 95 450 98C425 101 400 101 375 103C350 105 325 109 300 110C275 111 250 109 225 108C200 107 175 107 150 102C125 97 100 87 75 85C50 83 25 89 12.5 92L0 95Z" fill="#fa8831"></path><path d="M0 187L12.5 179C25 171 50 155 75 158C100 161 125 183 150 191C175 199 200 193 225 186C250 179 275 171 300 174C325 177 350 191 375 190C400 189 425 173 450 166C475 159 500 161 525 162C550 163 575 163 600 160C625 157 650 151 675 149C700 147 725 149 750 153C775 157 800 163 825 160C850 157 875 145 887.5 139L900 133L900 101L887.5 110C875 119 850 137 825 143C800 149 775 143 750 138C725 133 700 129 675 130C650 131 625 137 600 139C575 141 550 139 525 137C500 135 475 133 450 139C425 145 400 159 375 162C350 165 325 157 300 157C275 157 250 165 225 169C200 173 175 173 150 163C125 153 100 133 75 131C50 129 25 145 12.5 153L0 161Z" fill="#fe9b52"></path><path d="M0 277L12.5 274C25 271 50 265 75 271C100 277 125 295 150 302C175 309 200 305 225 302C250 299 275 297 300 292C325 287 350 279 375 284C400 289 425 307 450 307C475 307 500 289 525 284C550 279 575 287 600 291C625 295 650 295 675 286C700 277 725 259 750 267C775 275 800 309 825 311C850 313 875 283 887.5 268L900 253L900 131L887.5 137C875 143 850 155 825 158C800 161 775 155 750 151C725 147 700 145 675 147C650 149 625 155 600 158C575 161 550 161 525 160C500 159 475 157 450 164C425 171 400 187 375 188C350 189 325 175 300 172C275 169 250 177 225 184C200 191 175 197 150 189C125 181 100 159 75 156C50 153 25 169 12.5 177L0 185Z" fill="#ffa35e"></path><path d="M0 307L12.5 304C25 301 50 295 75 301C100 307 125 325 150 334C175 343 200 343 225 340C250 337 275 331 300 325C325 319 350 313 375 318C400 323 425 339 450 340C475 341 500 327 525 324C550 321 575 329 600 329C625 329 650 321 675 310C700 299 725 285 750 293C775 301 800 331 825 334C850 337 875 313 887.5 301L900 289L900 251L887.5 266C875 281 850 311 825 309C800 307 775 273 750 265C725 257 700 275 675 284C650 293 625 293 600 289C575 285 550 277 525 282C500 287 475 305 450 305C425 305 400 287 375 282C350 277 325 285 300 290C275 295 250 297 225 300C200 303 175 307 150 300C125 293 100 275 75 269C50 263 25 269 12.5 272L0 275Z" fill="#ffa35e"></path><path d="M0 331L12.5 328C25 325 50 319 75 325C100 331 125 349 150 361C175 373 200 379 225 376C250 373 275 361 300 352C325 343 350 337 375 345C400 353 425 375 450 376C475 377 500 357 525 352C550 347 575 357 600 358C625 359 650 351 675 341C700 331 725 319 750 327C775 335 800 363 825 368C850 373 875 355 887.5 346L900 337L900 287L887.5 299C875 311 850 335 825 332C800 329 775 299 750 291C725 283 700 297 675 308C650 319 625 327 600 327C575 327 550 319 525 322C500 325 475 339 450 338C425 337 400 321 375 316C350 311 325 317 300 323C275 329 250 335 225 338C200 341 175 341 150 332C125 323 100 305 75 299C50 293 25 299 12.5 302L0 305Z" fill="#fe9b52"></path><path d="M0 457L12.5 461C25 465 50 473 75 473C100 473 125 465 150 467C175 469 200 481 225 481C250 481 275 469 300 468C325 467 350 477 375 484C400 491 425 495 450 490C475 485 500 471 525 468C550 465 575 473 600 468C625 463 650 445 675 446C700 447 725 467 750 476C775 485 800 483 825 480C850 477 875 473 887.5 471L900 469L900 335L887.5 344C875 353 850 371 825 366C800 361 775 333 750 325C725 317 700 329 675 339C650 349 625 357 600 356C575 355 550 345 525 350C500 355 475 375 450 374C425 373 400 351 375 343C350 335 325 341 300 350C275 359 250 371 225 374C200 377 175 371 150 359C125 347 100 329 75 323C50 317 25 323 12.5 326L0 329Z" fill="#fa8831"></path><path d="M0 487L12.5 491C25 495 50 503 75 501C100 499 125 487 150 487C175 487 200 499 225 501C250 503 275 495 300 494C325 493 350 499 375 505C400 511 425 517 450 511C475 505 500 487 525 483C550 479 575 489 600 485C625 481 650 463 675 466C700 469 725 493 750 503C775 513 800 509 825 504C850 499 875 493 887.5 490L900 487L900 467L887.5 469C875 471 850 475 825 478C800 481 775 483 750 474C725 465 700 445 675 444C650 443 625 461 600 466C575 471 550 463 525 466C500 469 475 483 450 488C425 493 400 489 375 482C350 475 325 465 300 466C275 467 250 479 225 479C200 479 175 467 150 465C125 463 100 471 75 471C50 471 25 463 12.5 459L0 455Z" fill="#f1740f"></path><path d="M0 511L12.5 515C25 519 50 527 75 526C100 525 125 515 150 518C175 521 200 537 225 538C250 539 275 525 300 524C325 523 350 535 375 542C400 549 425 551 450 545C475 539 500 525 525 521C550 517 575 523 600 520C625 517 650 505 675 509C700 513 725 533 750 542C775 551 800 549 825 546C850 543 875 539 887.5 537L900 535L900 485L887.5 488C875 491 850 497 825 502C800 507 775 511 750 501C725 491 700 467 675 464C650 461 625 479 600 483C575 487 550 477 525 481C500 485 475 503 450 509C425 515 400 509 375 503C350 497 325 491 300 492C275 493 250 501 225 499C200 497 175 485 150 485C125 485 100 497 75 499C50 501 25 493 12.5 489L0 485Z" fill="#d2660f"></path><path d="M0 601L12.5 601C25 601 50 601 75 601C100 601 125 601 150 601C175 601 200 601 225 601C250 601 275 601 300 601C325 601 350 601 375 601C400 601 425 601 450 601C475 601 500 601 525 601C550 601 575 601 600 601C625 601 650 601 675 601C700 601 725 601 750 601C775 601 800 601 825 601C850 601 875 601 887.5 601L900 601L900 533L887.5 535C875 537 850 541 825 544C800 547 775 549 750 540C725 531 700 511 675 507C650 503 625 515 600 518C575 521 550 515 525 519C500 523 475 537 450 543C425 549 400 547 375 540C350 533 325 521 300 522C275 523 250 537 225 536C200 535 175 519 150 516C125 513 100 523 75 524C50 525 25 517 12.5 513L0 509Z" fill="#b5580e"></path></svg>